# xmcd CD database file
#
# Track frame offsets:
#	150
#	18960
#	37055
#	56277
#	64867
#	85290
#	104205
#	125065
#	140415
#	159297
#	187202
#	207565
#	224635
#	233750
#
# Disc length: 3360 seconds
#
# Revision: 0
# Processed by: cddbd v1.4PL0 Copyright (c) Steve Scherf et al.
# Submitted via: CDex 1.50
#
DISCID=d80d1e0e
DTITLE=Pablo Carcamo - Merengue
DYEAR=1997
DGENRE=Merengue
TTITLE0=Woman del Callao
TTITLE1=Caracas
TTITLE2=Coral
TTITLE3=Domingo
TTITLE4=Ansiedad
TTITLE5=La chica del Paraguas
TTITLE6=El rey Iloró
TTITLE7=Julián
TTITLE8=Viento dile a la Iluvia
TTITLE9=Selva negra
TTITLE10=Mere... - qué?
TTITLE11=Aruba
TTITLE12=Cristal
TTITLE13=Viviré
EXTD=YEAR: 1997
EXTT0=
EXTT1=
EXTT2=
EXTT3=
EXTT4=
EXTT5=
EXTT6=
EXTT7=
EXTT8=
EXTT9=
EXTT10=
EXTT11=
EXTT12=
EXTT13=
PLAYORDER=
